<?xml version="1.0" standalone="no"?>
<!DOCTYPE svg PUBLIC "-//W3C//DTD SVG 20010904//EN"
 "http://www.w3.org/TR/2001/REC-SVG-20010904/DTD/svg10.dtd">
<svg version="1.0" xmlns="http://www.w3.org/2000/svg"
 width="480.000000pt" height="480.000000pt" viewBox="0 0 480.000000 480.000000"
 preserveAspectRatio="xMidYMid meet">
<metadata>
Created by potrace 1.11, written by Peter Selinger 2001-2013
</metadata>
<g transform="translate(0.000000,480.000000) scale(0.100000,-0.100000)"
fill="#000000" stroke="none">
<path d="M0 4175 l0 -605 2400 0 2400 0 0 605 0 605 -2400 0 -2400 0 0 -605z
m564 229 l47 -112 129 -12 c72 -7 130 -16 129 -19 0 -3 -44 -43 -98 -88 l-98
-83 28 -127 c15 -70 27 -129 26 -130 -1 -1 -49 27 -107 62 -58 36 -111 65
-119 65 -8 0 -61 -27 -118 -61 -58 -33 -106 -59 -108 -57 -3 2 9 60 25 128
l30 125 -24 20 c-70 59 -166 149 -166 155 0 4 56 11 125 15 74 4 128 12 133
18 4 7 30 61 57 120 26 59 51 104 55 100 4 -4 29 -58 54 -119z m950 7 l49
-119 129 -12 c71 -7 128 -16 126 -20 -2 -4 -43 -42 -93 -85 -49 -43 -91 -82
-93 -86 -2 -5 8 -64 22 -130 15 -67 25 -123 24 -125 -2 -1 -53 28 -114 66
l-111 68 -112 -65 c-61 -36 -113 -64 -115 -62 -2 2 9 58 25 124 16 66 29 123
29 126 0 4 -43 44 -95 90 -52 46 -95 87 -95 90 0 4 55 10 123 14 67 4 127 11
133 16 6 5 33 59 60 119 26 61 50 110 53 110 3 0 28 -54 55 -119z m952 2 l50
-118 133 -15 134 -15 -93 -80 c-51 -44 -97 -83 -102 -86 -5 -3 2 -59 16 -128
14 -67 26 -126 26 -131 0 -6 -48 20 -107 56 -60 37 -112 67 -118 67 -5 0 -57
-28 -115 -62 -58 -33 -108 -61 -111 -61 -3 0 7 53 22 117 16 65 29 123 29 129
0 7 -43 51 -95 98 -53 47 -94 87 -93 88 2 0 61 6 132 12 l129 11 51 117 c28
65 53 118 56 118 3 0 28 -53 56 -117z m953 -4 l48 -114 133 -15 133 -15 -102
-89 c-70 -61 -100 -94 -97 -105 9 -28 54 -241 51 -241 -1 0 -53 31 -115 69
l-113 69 -110 -65 c-60 -35 -112 -62 -114 -59 -2 2 7 52 21 111 14 59 26 115
26 125 0 10 -39 54 -90 101 -49 45 -90 85 -90 89 0 5 57 11 126 15 l126 8 30
66 c17 36 41 90 54 120 13 30 27 52 30 49 3 -3 27 -57 53 -119z m956 -5 l46
-112 130 -12 c71 -7 129 -16 128 -19 0 -3 -44 -43 -98 -88 l-98 -83 28 -127
c15 -70 27 -129 26 -130 -1 -1 -49 27 -107 62 -58 36 -111 65 -119 65 -8 0
-61 -27 -118 -61 -58 -33 -106 -59 -109 -57 -2 2 8 51 21 109 14 57 27 113 30
125 3 16 -16 38 -90 104 -52 46 -95 87 -95 90 0 4 56 11 125 15 74 4 128 12
133 18 4 7 30 60 57 120 27 59 52 104 56 100 4 -5 28 -58 54 -119z"/>
<path d="M1895 3195 c-222 -49 -365 -193 -425 -429 -57 -224 -47 -687 18 -876
85 -246 279 -379 555 -380 316 -1 522 164 588 470 26 121 38 485 20 638 -37
317 -171 502 -412 568 -82 22 -260 27 -344 9z m270 -377 c47 -51 64 -119 76
-300 13 -183 -1 -442 -26 -526 -30 -99 -105 -151 -195 -135 -82 14 -117 53
-147 164 -15 54 -18 108 -18 334 0 282 6 339 46 422 31 65 69 84 157 81 71 -3
76 -5 107 -40z"/>
<path d="M341 2363 c115 -456 209 -829 209 -831 0 -1 91 -1 202 0 l202 3 207
806 c114 444 210 816 214 828 6 21 6 21 -182 19 l-188 -3 -82 -360 c-125 -546
-145 -627 -149 -622 -2 2 -52 217 -110 478 -57 261 -107 482 -110 492 -5 15
-24 17 -214 17 l-208 0 209 -827z"/>
<path d="M2720 3010 l0 -180 155 0 155 0 0 -650 0 -650 200 0 200 0 0 650 0
650 155 0 155 0 0 180 0 180 -510 0 -510 0 0 -180z"/>
<path d="M3900 2360 l0 -830 436 2 436 3 2 172 1 173 -240 2 -240 3 -3 163 -2
162 195 0 195 0 0 175 0 175 -192 2 -193 3 0 135 0 135 228 3 227 2 0 175 0
175 -425 0 -425 0 0 -830z"/>
<path d="M0 630 l0 -600 2400 0 2400 0 0 600 0 600 -2400 0 -2400 0 0 -600z
m560 240 c24 -58 46 -108 50 -112 3 -5 61 -14 128 -21 67 -7 124 -16 127 -18
2 -3 -40 -42 -94 -88 l-98 -83 24 -111 c13 -62 26 -120 29 -129 3 -10 3 -18 0
-18 -2 0 -54 30 -115 66 l-111 66 -115 -65 c-63 -36 -115 -62 -115 -59 0 4 14
61 30 127 l30 120 -97 91 -97 91 45 6 c24 3 83 9 131 13 l86 6 53 119 c29 66
55 116 59 112 4 -4 26 -55 50 -113z m910 110 c0 -6 21 -60 46 -119 l46 -109
42 -6 c22 -3 75 -8 116 -12 41 -4 81 -10 87 -13 9 -4 -21 -36 -82 -89 -52 -46
-95 -87 -95 -93 0 -5 11 -62 25 -126 14 -64 24 -118 22 -120 -2 -2 -52 26
-111 62 -58 36 -109 65 -114 65 -4 0 -56 -29 -117 -64 -60 -35 -111 -63 -112
-62 -1 1 12 59 28 129 l31 127 -59 52 c-32 29 -76 69 -98 90 l-39 36 54 6 c30
3 90 9 133 13 l79 8 51 118 c46 105 67 138 67 107z m1042 -222 c2 -4 55 -12
118 -19 63 -7 121 -15 128 -19 10 -5 -16 -33 -82 -89 -53 -46 -96 -85 -96 -87
0 -2 12 -58 26 -125 14 -66 24 -122 22 -124 -2 -3 -51 25 -108 60 -58 36 -109
65 -113 65 -4 0 -55 -27 -113 -61 -58 -33 -108 -58 -111 -55 -3 3 7 56 21 118
14 62 26 118 26 123 0 6 -43 49 -95 95 l-95 85 32 6 c18 4 77 10 131 14 l99 7
23 52 c12 28 37 83 55 121 l31 70 49 -115 c27 -63 51 -118 52 -122z m903 117
c27 -64 51 -118 55 -120 4 -2 49 -9 101 -15 52 -6 109 -13 127 -16 l32 -5 -87
-76 c-49 -41 -93 -80 -100 -87 -9 -8 -6 -40 16 -138 15 -71 26 -128 23 -128
-2 0 -53 29 -111 65 -59 36 -110 65 -113 65 -4 0 -57 -29 -117 -64 -61 -36
-111 -59 -111 -53 0 7 13 65 29 130 l28 118 -97 87 -97 87 36 6 c20 4 79 10
131 14 l95 7 30 67 c65 145 77 171 80 171 1 0 24 -52 50 -115z m955 -5 c24
-58 46 -108 50 -112 3 -5 61 -14 128 -21 67 -7 124 -15 126 -18 3 -3 -37 -40
-89 -84 -60 -51 -94 -87 -94 -100 0 -11 10 -69 23 -130 13 -60 23 -111 21
-113 -1 -1 -52 27 -114 64 l-111 66 -115 -65 c-63 -36 -115 -62 -115 -59 0 4
14 61 30 127 l30 120 -97 91 -97 91 45 6 c24 3 83 9 131 13 l86 6 53 119 c29
66 55 116 59 112 4 -4 26 -55 50 -113z"/>
</g>
</svg>
